Coordinates
version=1
nRows=72
nColumns=19
inDegrees=yes

Units are S.I. units (second, meters, Newtons, ...)
Angles are in degrees.

endheader
time	1_Force_X	1_Force_Y	1_Force_Z	1_Moment_X	1_Moment_Y	1_Moment_Z	1_COP_X	1_COP_Y	1_COP_Z	2_Force_X	2_Force_Y	2_Force_Z	2_Moment_X	2_Moment_Y	2_Moment_Z	2_COP_X	2_COP_Y	2_COP_Z
0.0075	13.607	425.124	-11.221	-0.298	0.000	0.507	20.001	348.835	0.867	-0.328	0.000	0.130	0.00000	9.89760	0.00000	0.00000	-3.56794	0.00000
0.0100	13.434	426.169	-10.913	-0.298	0.000	0.507	20.134	350.554	0.785	-0.329	0.000	0.130	0.00000	9.88315	0.00000	0.00000	-3.53430	0.00000
0.0125	13.121	427.383	-11.312	-0.298	0.000	0.507	19.524	350.892	0.347	-0.328	0.000	0.130	0.00000	9.84422	0.00000	0.00000	-3.66966	0.00000
0.0150	13.430	426.687	-11.444	-0.298	0.000	0.507	19.523	351.410	0.567	-0.328	0.000	0.130	0.00000	9.87323	0.00000	0.00000	-3.62551	0.00000
0.0175	13.606	427.732	-11.313	-0.298	0.000	0.507	19.740	349.691	0.607	-0.328	0.000	0.130	0.00000	9.91264	0.00000	0.00000	-3.64090	0.00000
0.0200	13.384	428.085	-11.135	-0.298	0.000	0.507	19.434	351.069	0.872	-0.328	0.000	0.130	0.00000	10.01268	0.00000	0.00000	-3.61771	0.00000
0.0225	13.123	427.738	-11.046	-0.298	0.000	0.507	19.215	350.207	0.780	-0.328	0.000	0.130	0.00000	9.94452	0.00000	0.00000	-3.68852	0.00000
0.0250	13.737	427.728	-11.095	-0.298	0.000	0.507	19.604	348.665	1.390	-0.328	0.000	0.130	0.00000	9.93750	0.00000	0.00000	-3.61129	0.00000
0.0275	13.472	427.378	-11.315	-0.298	0.000	0.507	19.343	348.837	1.302	-0.329	0.000	0.130	0.00000	9.88355	0.00000	0.00000	-3.59342	0.00000
0.0300	13.516	427.900	-11.404	-0.298	0.000	0.507	19.386	348.667	1.435	-0.328	0.000	0.130	0.00000	9.89854	0.00000	0.00000	-3.57359	0.00000
0.0325	13.516	427.900	-11.405	-0.298	0.000	0.507	19.472	348.493	1.479	-0.328	0.000	0.131	0.00000	9.89701	0.00000	0.00000	-3.64244	0.00000
0.0350	13.519	426.686	-11.314	-0.298	0.000	0.507	19.687	347.805	1.739	-0.329	0.000	0.130	0.00000	9.88283	0.00000	0.00000	-3.69131	0.00000
0.0375	13.385	427.382	-11.226	-0.298	0.000	0.507	19.340	348.320	1.476	-0.329	0.000	0.130	0.00000	9.92718	0.00000	0.00000	-3.67063	0.00000
0.0400	13.251	429.467	-11.186	-0.298	0.000	0.507	19.078	347.460	1.255	-0.328	0.000	0.131	0.00000	9.90869	0.00000	0.00000	-3.68446	0.00000
0.0425	12.984	428.075	-11.491	-0.298	0.000	0.507	18.991	348.148	1.344	-0.328	0.000	0.131	0.00000	9.87358	0.00000	0.00000	-3.67711	0.00000
0.0450	13.468	427.721	-11.494	-0.298	0.000	0.508	19.074	347.466	1.998	-0.328	0.000	0.130	0.00000	9.88968	0.00000	0.00000	-3.62768	0.00000
0.0475	13.468	428.412	-11.497	-0.298	0.000	0.508	19.247	346.263	2.259	-0.328	0.000	0.131	0.00000	9.85759	0.00000	0.00000	-3.62158	0.00000
0.0500	13.428	427.547	-11.495	-0.298	0.000	0.508	19.292	347.296	2.262	-0.328	0.000	0.131	0.00000	9.81439	0.00000	0.00000	-3.57665	0.00000
0.0525	13.427	428.413	-11.320	-0.298	0.000	0.508	18.938	346.438	2.608	-0.328	0.000	0.131	0.00000	9.81104	0.00000	0.00000	-3.62496	0.00000
0.0550	13.473	428.235	-11.279	-0.298	0.000	0.508	19.113	345.579	2.606	-0.328	0.000	0.131	0.00000	9.76180	0.00000	0.00000	-3.60113	0.00000
0.0575	13.694	427.370	-11.187	-0.298	0.000	0.508	19.067	344.549	2.734	-0.328	0.000	0.130	0.00000	9.82053	0.00000	0.00000	-3.58999	0.00000
0.0600	13.255	428.588	-11.321	-0.298	0.000	0.508	18.722	345.920	2.257	-0.328	0.000	0.131	0.00000	9.74046	0.00000	0.00000	-3.64699	0.00000
0.0625	13.169	428.244	-11.099	-0.297	0.000	0.508	18.764	345.403	2.300	-0.328	0.000	0.131	0.00000	9.77201	0.00000	0.00000	-3.68545	0.00000
0.0650	13.344	428.408	-11.280	-0.298	0.000	0.508	18.719	345.406	2.517	-0.328	0.000	0.131	0.00000	9.68306	0.00000	0.00000	-3.63586	0.00000
0.0675	13.255	428.758	-11.280	-0.297	0.000	0.508	18.721	345.575	2.301	-0.328	0.000	0.131	0.00000	9.72607	0.00000	0.00000	-3.67939	0.00000
0.0700	13.299	427.890	-11.366	-0.297	0.000	0.508	18.721	344.717	2.209	-0.328	0.000	0.131	0.00000	9.75054	0.00000	0.00000	-3.63509	0.00000
0.0725	13.519	428.406	-11.237	-0.298	0.000	0.508	18.980	344.893	2.823	-0.328	0.000	0.131	0.00000	9.72422	0.00000	0.00000	-3.58806	0.00000
0.0750	13.388	427.887	-11.323	-0.298	0.000	0.508	19.068	344.376	2.693	-0.328	0.000	0.131	0.00000	9.69243	0.00000	0.00000	-3.59305	0.00000
0.0775	13.213	427.717	-11.189	-0.297	0.000	0.508	18.894	343.689	2.469	-0.328	0.000	0.131	0.00000	9.71895	0.00000	0.00000	-3.57647	0.00000
0.0800	13.297	430.146	-11.326	-0.298	0.000	0.508	18.719	345.749	2.607	-0.328	0.000	0.131	0.00000	9.71863	0.00000	0.00000	-3.65943	0.00000
0.0825	13.210	429.450	-11.458	-0.297	0.000	0.508	18.721	345.231	2.213	-0.328	0.000	0.131	0.00000	9.68100	0.00000	0.00000	-3.66193	0.00000
0.0850	13.296	429.620	-11.460	-0.298	0.000	0.508	18.680	346.607	2.172	-0.328	0.000	0.131	0.00000	9.69774	0.00000	0.00000	-3.63233	0.00000
0.0875	13.161	430.320	-11.724	-0.297	0.000	0.508	18.853	346.432	2.173	-0.328	0.000	0.131	0.00000	9.74378	0.00000	0.00000	-3.72942	0.00000
0.0900	13.029	429.971	-11.900	-0.297	0.000	0.508	18.723	347.293	2.174	-0.328	0.000	0.131	0.00000	9.69559	0.00000	0.00000	-3.69017	0.00000
0.0925	13.557	429.797	-11.636	-0.298	0.000	0.508	19.158	346.436	2.438	-0.328	0.000	0.131	0.00000	9.81062	0.00000	0.00000	-3.62908	0.00000
0.0950	13.509	430.136	-11.904	-0.298	0.000	0.509	19.117	347.639	2.222	-0.328	0.000	0.131	0.00000	9.75724	0.00000	0.00000	-3.61988	0.00000
0.0975	13.422	430.489	-11.727	-0.298	0.000	0.509	19.248	347.982	2.267	-0.328	0.000	0.131	0.00000	9.80705	0.00000	0.00000	-3.63796	0.00000
0.1000	13.201	432.399	-11.553	-0.298	0.000	0.509	18.988	349.181	1.876	-0.328	0.000	0.132	0.00000	9.77344	0.00000	0.00000	-3.70778	0.00000
0.1025	13.425	432.572	-11.512	-0.297	0.000	0.509	19.251	349.870	1.925	-0.328	0.000	0.132	0.00000	9.74612	0.00000	0.00000	-3.66874	0.00000
0.1050	13.200	432.043	-11.733	-0.298	0.000	0.509	19.643	349.014	2.231	-0.328	0.000	0.132	0.00000	9.69543	0.00000	0.00000	-3.58289	0.00000
0.1075	13.070	432.742	-11.690	-0.297	0.000	0.509	19.162	350.211	2.012	-0.328	0.000	0.132	0.00000	9.70039	0.00000	0.00000	-3.76087	0.00000
0.1100	13.158	431.870	-11.866	-0.297	0.000	0.509	19.292	349.014	2.537	-0.329	0.000	0.132	0.00000	9.65863	0.00000	0.00000	-3.61731	0.00000
0.1125	13.289	432.560	-11.781	-0.298	0.000	0.509	19.465	349.700	2.671	-0.329	0.000	0.132	0.00000	9.64539	0.00000	0.00000	-3.68754	0.00000
0.1150	12.807	432.569	-11.689	-0.297	0.000	0.509	19.030	351.590	2.456	-0.328	0.000	0.132	0.00000	9.65659	0.00000	0.00000	-3.68889	0.00000
0.1175	12.939	432.564	-11.603	-0.297	0.000	0.510	18.986	351.076	2.587	-0.328	0.000	0.133	0.00000	9.63236	0.00000	0.00000	-3.67818	0.00000
0.1200	12.894	431.692	-11.734	-0.298	0.000	0.510	19.593	349.360	3.065	-0.328	0.000	0.132	0.00000	9.59012	0.00000	0.00000	-3.64320	0.00000
0.1225	12.849	431.167	-12.044	-0.298	0.000	0.510	19.244	350.048	2.978	-0.328	0.000	0.132	0.00000	9.55655	0.00000	0.00000	-3.63605	0.00000
0.1250	12.893	431.341	-11.956	-0.298	0.000	0.510	19.418	349.706	3.242	-0.328	0.000	0.133	0.00000	9.56036	0.00000	0.00000	-3.61444	0.00000
0.1275	12.939	431.861	-11.737	-0.297	0.000	0.510	19.157	349.189	3.065	-0.328	0.000	0.133	0.00000	9.54900	0.00000	0.00000	-3.61338	0.00000
0.1300	13.112	432.032	-11.915	-0.298	0.000	0.510	19.199	349.363	3.372	-0.328	0.000	0.133	0.00000	9.56463	0.00000	0.00000	-3.59801	0.00000
0.1325	12.897	430.297	-12.176	-0.297	0.000	0.510	19.153	348.333	3.543	-0.328	0.000	0.133	0.00000	9.48299	0.00000	0.00000	-3.59594	0.00000
0.1350	12.766	430.819	-11.868	-0.297	0.000	0.510	18.719	349.187	3.020	-0.328	0.000	0.133	0.00000	9.48113	0.00000	0.00000	-3.68452	0.00000
0.1375	12.897	430.292	-11.913	-0.297	0.000	0.510	18.761	348.674	3.326	-0.328	0.000	0.133	0.00000	9.44606	0.00000	0.00000	-3.64988	0.00000
0.1400	12.502	429.604	-11.953	-0.297	0.000	0.510	18.587	347.987	3.192	-0.328	0.000	0.133	0.00000	9.45418	0.00000	0.00000	-3.63997	0.00000
0.1425	12.504	428.905	-11.998	-0.297	0.000	0.510	18.412	347.813	3.193	-0.328	0.000	0.134	0.00000	9.38675	0.00000	0.00000	-3.67502	0.00000
0.1450	12.416	428.036	-12.306	-0.297	0.000	0.510	18.236	347.641	3.321	-0.328	0.000	0.134	0.00000	9.33442	0.00000	0.00000	-3.72550	0.00000
0.1475	12.860	425.424	-12.172	-0.297	0.000	0.510	18.363	344.725	3.796	-0.328	0.000	0.134	0.00000	9.30842	0.00000	0.00000	-3.60762	0.00000
0.1500	12.810	425.599	-12.700	-0.297	0.000	0.510	18.452	344.726	3.665	-0.328	0.000	0.133	0.00000	9.36287	0.00000	0.00000	-3.56695	0.00000
0.1525	12.636	424.902	-12.523	-0.297	0.000	0.510	18.407	343.349	3.574	-0.328	0.000	0.134	0.00000	9.30065	0.00000	0.00000	-3.60598	0.00000
0.1550	12.506	425.253	-12.346	-0.297	0.000	0.510	17.928	343.863	3.356	-0.328	0.000	0.134	0.00000	9.29702	0.00000	0.00000	-3.63925	0.00000
0.1575	12.464	424.210	-12.389	-0.297	0.000	0.510	17.665	343.002	3.308	-0.327	0.000	0.134	0.00000	9.27092	0.00000	0.00000	-3.68278	0.00000
0.1600	12.420	422.642	-12.609	-0.297	0.000	0.511	17.709	342.144	3.395	-0.328	0.000	0.134	0.00000	9.21317	0.00000	0.00000	-3.64110	0.00000
0.1625	12.600	421.947	-12.741	-0.297	0.000	0.511	17.750	341.457	3.524	-0.327	0.000	0.134	0.00000	9.18048	0.00000	0.00000	-3.65646	0.00000
0.1650	12.200	421.250	-12.827	-0.297	0.000	0.511	17.575	339.739	3.607	-0.328	0.000	0.134	0.00000	9.14316	0.00000	0.00000	-3.64024	0.00000
0.1675	12.201	420.380	-12.738	-0.297	0.000	0.511	17.833	339.057	4.176	-0.328	0.000	0.134	0.00000	9.14365	0.00000	0.00000	-3.57097	0.00000
0.1700	12.378	418.983	-13.092	-0.297	0.000	0.511	18.008	337.336	3.953	-0.328	0.000	0.134	0.00000	9.05740	0.00000	0.00000	-3.59909	0.00000
0.1725	12.332	418.981	-13.270	-0.297	0.000	0.512	17.790	338.023	3.999	-0.328	0.000	0.135	0.00000	9.05471	0.00000	0.00000	-3.61127	0.00000
0.1750	11.983	418.643	-13.221	-0.297	0.000	0.511	17.399	338.021	3.560	-0.327	0.000	0.135	0.00000	9.07837	0.00000	0.00000	-3.62135	0.00000
0.1775	11.934	418.811	-13.620	-0.297	0.000	0.511	17.048	336.302	3.641	-0.327	0.000	0.135	0.00000	9.04459	0.00000	0.00000	-3.64342	0.00000
0.1800	11.850	418.115	-13.665	-0.297	0.000	0.512	17.266	336.129	3.598	-0.327	0.000	0.135	0.00000	8.96036	0.00000	0.00000	-3.67564	0.00000
0.1825	11.495	417.773	-13.573	-0.297	0.000	0.512	16.959	335.272	3.770	-0.327	0.000	0.135	0.00000	9.05012	0.00000	0.00000	-3.64741	0.00000
0.1850	11.979	417.764	-13.754	-0.297	0.000	0.512	16.915	334.928	3.771	-0.327	0.000	0.136	0.00000	9.00330	0.00000	0.00000	-3.65517	0.00000
